<svg width="25" height="25" viewBox="0 0 25 25" fill="none" xmlns="http://www.w3.org/2000/svg">
<path d="M6.4044 14.3531L6.40466 14.3528L13.2911 7.41881L17.5828 11.7105L10.6973 18.596C10.6971 18.5962 10.6969 18.5964 10.6967 18.5966C10.3954 18.8961 10.0228 19.1138 9.61396 19.2293L9.61167 19.23L5.97313 20.2767C5.8095 20.3145 5.63893 20.3105 5.47716 20.2649C5.31227 20.2185 5.16206 20.1306 5.04094 20.0094C4.91982 19.8883 4.83184 19.7381 4.78544 19.5732C4.73966 19.4105 4.73586 19.2389 4.77435 19.0745L5.77157 15.4346C5.88727 15.0262 6.10505 14.654 6.4044 14.3531ZM17.4999 4.4668C18.3046 4.4668 19.0765 4.78585 19.6463 5.354C20.2145 5.92385 20.5336 6.69575 20.5336 7.50048C20.5336 8.2752 20.2379 9.01947 19.7089 9.58235L15.418 5.29152C15.9809 4.76251 16.7252 4.4668 17.4999 4.4668Z" stroke="#1F4A40"/>
</svg>
