<svg width="16" height="16" viewBox="0 0 16 16" fill="none" xmlns="http://www.w3.org/2000/svg">
<path d="M6.66663 11.3335C6.57889 11.334 6.49191 11.3171 6.41069 11.284C6.32946 11.2508 6.25559 11.2019 6.19329 11.1401C6.13081 11.0781 6.08121 11.0044 6.04737 10.9232C6.01352 10.8419 5.99609 10.7548 5.99609 10.6668C5.99609 10.5788 6.01352 10.4916 6.04737 10.4104C6.08121 10.3292 6.13081 10.2554 6.19329 10.1935L8.39329 8.00012L6.19329 5.80679C6.06776 5.68125 5.99723 5.51099 5.99723 5.33346C5.99723 5.24555 6.01455 5.15851 6.04819 5.07729C6.08183 4.99608 6.13113 4.92228 6.19329 4.86012C6.25545 4.79796 6.32924 4.74866 6.41046 4.71502C6.49167 4.68138 6.57872 4.66406 6.66663 4.66406C6.84416 4.66406 7.01442 4.73459 7.13996 4.86012L9.80663 7.52679C9.86911 7.58877 9.91871 7.6625 9.95255 7.74374C9.9864 7.82498 10.0038 7.91212 10.0038 8.00012C10.0038 8.08813 9.9864 8.17527 9.95255 8.25651C9.91871 8.33775 9.86911 8.41148 9.80663 8.47346L7.13996 11.1401C7.07767 11.2019 7.00379 11.2508 6.92256 11.284C6.84134 11.3171 6.75436 11.334 6.66663 11.3335Z" fill="#1F4A40"/>
</svg>
