<svg width="19" height="20" viewBox="0 0 19 20" fill="none" xmlns="http://www.w3.org/2000/svg">
<path d="M17.5 4H15.5V3C15.5 2.20435 15.1839 1.44129 14.6213 0.87868C14.0587 0.316071 13.2956 0 12.5 0H6.5C5.70435 0 4.94129 0.316071 4.37868 0.87868C3.81607 1.44129 3.5 2.20435 3.5 3V4H1.5C1.23478 4 0.98043 4.10536 0.792893 4.29289C0.605357 4.48043 0.5 4.73478 0.5 5C0.5 5.26522 0.605357 5.51957 0.792893 5.70711C0.98043 5.89464 1.23478 6 1.5 6H2.5V17C2.5 17.7956 2.81607 18.5587 3.37868 19.1213C3.94129 19.6839 4.70435 20 5.5 20H13.5C14.2956 20 15.0587 19.6839 15.6213 19.1213C16.1839 18.5587 16.5 17.7956 16.5 17V6H17.5C17.7652 6 18.0196 5.89464 18.2071 5.70711C18.3946 5.51957 18.5 5.26522 18.5 5C18.5 4.73478 18.3946 4.48043 18.2071 4.29289C18.0196 4.10536 17.7652 4 17.5 4ZM6.5 16C6.5 16.2652 6.39464 16.5196 6.20711 16.7071C6.01957 16.8946 5.76522 17 5.5 17C5.23478 17 4.98043 16.8946 4.79289 16.7071C4.60536 16.5196 4.5 16.2652 4.5 16V9C4.5 8.73478 4.60536 8.48043 4.79289 8.29289C4.98043 8.10536 5.23478 8 5.5 8C5.76522 8 6.01957 8.10536 6.20711 8.29289C6.39464 8.48043 6.5 8.73478 6.5 9V16ZM10.5 16C10.5 16.2652 10.3946 16.5196 10.2071 16.7071C10.0196 16.8946 9.76522 17 9.5 17C9.23478 17 8.98043 16.8946 8.79289 16.7071C8.60536 16.5196 8.5 16.2652 8.5 16V9C8.5 8.73478 8.60536 8.48043 8.79289 8.29289C8.98043 8.10536 9.23478 8 9.5 8C9.76522 8 10.0196 8.10536 10.2071 8.29289C10.3946 8.48043 10.5 8.73478 10.5 9V16ZM14.5 16C14.5 16.2652 14.3946 16.5196 14.2071 16.7071C14.0196 16.8946 13.7652 17 13.5 17C13.2348 17 12.9804 16.8946 12.7929 16.7071C12.6054 16.5196 12.5 16.2652 12.5 16V9C12.5 8.73478 12.6054 8.48043 12.7929 8.29289C12.9804 8.10536 13.2348 8 13.5 8C13.7652 8 14.0196 8.10536 14.2071 8.29289C14.3946 8.48043 14.5 8.73478 14.5 9V16ZM5.5 3C5.5 2.73478 5.60536 2.48043 5.79289 2.29289C5.98043 2.10536 6.23478 2 6.5 2H12.5C12.7652 2 13.0196 2.10536 13.2071 2.29289C13.3946 2.48043 13.5 2.73478 13.5 3V4H5.5V3Z" fill="#841B1C"/>
</svg>
