<svg width="13" height="14" viewBox="0 0 13 14" fill="none" xmlns="http://www.w3.org/2000/svg">
<path d="M7.20389 4.92167V3.04167H2.23055C1.89931 3.04343 1.58223 3.17625 1.34862 3.41111C1.11501 3.64596 0.983882 3.96375 0.983887 4.295V12.455C0.983882 12.7863 1.11501 13.104 1.34862 13.3389C1.58223 13.5737 1.89931 13.7066 2.23055 13.7083H9.07055C9.4018 13.7066 9.71888 13.5737 9.95249 13.3389C10.1861 13.104 10.3172 12.7863 10.3172 12.455V6.18167H8.45055C8.28596 6.18079 8.12316 6.14751 7.97143 6.08372C7.8197 6.01992 7.68202 5.92687 7.56626 5.80986C7.4505 5.69286 7.35891 5.5542 7.29674 5.40181C7.23456 5.24941 7.20301 5.08626 7.20389 4.92167ZM12.5906 2.76833L10.5906 0.768333C10.3417 0.517941 10.0036 0.376489 9.65055 0.375H4.31722C3.9636 0.375 3.62446 0.515476 3.37441 0.765524C3.12436 1.01557 2.98389 1.35471 2.98389 1.70833H7.65055C8.18081 1.7088 8.68917 1.91982 9.06389 2.295L11.0639 4.295C11.4391 4.66971 11.6501 5.17808 11.6506 5.70833V11.7083C12.0042 11.7083 12.3433 11.5679 12.5934 11.3178C12.8434 11.0678 12.9839 10.7286 12.9839 10.375V3.70833C12.9824 3.35528 12.8409 3.01723 12.5906 2.76833Z" fill="#1F4A40"/>
</svg>
