<svg width="31" height="32" viewBox="0 0 31 32" fill="none" xmlns="http://www.w3.org/2000/svg">
<mask id="path-1-inside-1_1043_8691" fill="white">
<path d="M15.5001 8.07397C15.8427 8.07397 16.1712 7.93789 16.4134 7.69565C16.6557 7.45342 16.7917 7.12488 16.7917 6.78231V5.49064C16.7917 5.14807 16.6557 4.81953 16.4134 4.57729C16.1712 4.33506 15.8427 4.19897 15.5001 4.19897C15.1575 4.19897 14.829 4.33506 14.5867 4.57729C14.3445 4.81953 14.2084 5.14807 14.2084 5.49064V6.78231C14.2084 7.12488 14.3445 7.45342 14.5867 7.69565C14.829 7.93789 15.1575 8.07397 15.5001 8.07397ZM9.55841 10.5281C9.79899 10.2861 9.93402 9.95876 9.93402 9.61752C9.93402 9.27628 9.79899 8.9489 9.55841 8.70689L8.65425 7.78981C8.41366 7.55118 8.08894 7.41665 7.75008 7.41522C7.40751 7.41522 7.07897 7.55131 6.83674 7.79354C6.5945 8.03578 6.45841 8.36432 6.45841 8.70689C6.45912 8.87779 6.49374 9.04684 6.56026 9.20427C6.62677 9.36169 6.72387 9.50435 6.84591 9.62397L7.75008 10.5281C7.99153 10.7648 8.31615 10.8974 8.65425 10.8974C8.99234 10.8974 9.31697 10.7648 9.55841 10.5281ZM5.81258 15.1781H4.52091C4.17834 15.1781 3.8498 15.3142 3.60757 15.5565C3.36533 15.7987 3.22925 16.1272 3.22925 16.4698C3.22925 16.8124 3.36533 17.1409 3.60757 17.3832C3.8498 17.6254 4.17834 17.7615 4.52091 17.7615H5.81258C6.15515 17.7615 6.48369 17.6254 6.72593 17.3832C6.96816 17.1409 7.10425 16.8124 7.10425 16.4698C7.10425 16.1272 6.96816 15.7987 6.72593 15.5565C6.48369 15.3142 6.15515 15.1781 5.81258 15.1781ZM27.3963 15.5527C27.2756 15.433 27.1325 15.3383 26.9751 15.274C26.8178 15.2097 26.6492 15.1772 26.4792 15.1781H25.1876C24.845 15.1781 24.5165 15.3142 24.2742 15.5565C24.032 15.7987 23.8959 16.1272 23.8959 16.4698C23.8959 16.8124 24.032 17.1409 24.2742 17.3832C24.5165 17.6254 24.845 17.7615 25.1876 17.7615H26.4792C26.7358 17.763 26.987 17.688 27.2008 17.5462C27.4146 17.4044 27.5813 17.2021 27.6797 16.9651C27.7781 16.7282 27.8037 16.4673 27.7532 16.2158C27.7027 15.9642 27.5785 15.7334 27.3963 15.5527ZM24.5417 8.70689C24.5432 8.45033 24.4683 8.19915 24.3265 7.98535C24.1846 7.77155 23.9824 7.60484 23.7454 7.50645C23.5085 7.40807 23.2476 7.38248 22.996 7.43295C22.7445 7.48341 22.5137 7.60765 22.333 7.78981L21.4288 8.70689C21.1883 8.9489 21.0532 9.27628 21.0532 9.61752C21.0532 9.95876 21.1883 10.2861 21.4288 10.5281C21.6703 10.7648 21.9949 10.8974 22.333 10.8974C22.6711 10.8974 22.9957 10.7648 23.2372 10.5281L24.1672 9.62397C24.2869 9.50328 24.3816 9.36014 24.4459 9.20277C24.5101 9.0454 24.5427 8.87688 24.5417 8.70689ZM18.0834 24.8656H12.9167C12.5742 24.8656 12.2456 25.0017 12.0034 25.244C11.7612 25.4862 11.6251 25.8147 11.6251 26.1573C11.6251 26.4999 11.7612 26.8284 12.0034 27.0707C12.2456 27.3129 12.5742 27.449 12.9167 27.449H18.0834C18.426 27.449 18.7545 27.3129 18.9968 27.0707C19.239 26.8284 19.3751 26.4999 19.3751 26.1573C19.3751 25.8147 19.239 25.4862 18.9968 25.244C18.7545 25.0017 18.426 24.8656 18.0834 24.8656ZM20.0984 10.8511C18.7699 9.87817 17.1661 9.35371 15.5195 9.35371C13.8728 9.35371 12.269 9.87817 10.9405 10.8511C9.96024 11.5924 9.17487 12.5608 8.65204 13.6731C8.12921 14.7853 7.88458 16.008 7.93924 17.2358C7.99389 18.4635 8.34618 19.6596 8.96577 20.721C9.58536 21.7824 10.4537 22.6773 11.4959 23.3286C11.7015 23.456 11.9387 23.5231 12.1805 23.5223H14.2084V19.3761L12.9167 18.0844C12.7945 17.9627 12.6979 17.8178 12.6326 17.6581C12.5642 17.5035 12.5289 17.3363 12.5289 17.1673C12.5289 16.9983 12.5642 16.8311 12.6326 16.6765C12.6979 16.5168 12.7945 16.3719 12.9167 16.2502C13.1588 16.0097 13.4861 15.8746 13.8274 15.8746C14.1686 15.8746 14.496 16.0097 14.738 16.2502L15.5001 17.1156L16.3138 16.3019C16.5558 16.0613 16.8832 15.9263 17.2245 15.9263C17.5657 15.9263 17.8931 16.0613 18.1351 16.3019C18.2573 16.4236 18.3539 16.5685 18.4192 16.7281C18.4876 16.8828 18.5229 17.0499 18.5229 17.219C18.5229 17.388 18.4876 17.5552 18.4192 17.7098C18.3539 17.8694 18.2573 18.0144 18.1351 18.1361L16.8434 19.4277V23.574H18.8713C19.1132 23.5748 19.3504 23.5076 19.5559 23.3802C20.6072 22.7275 21.4825 21.827 22.105 20.7576C22.7275 19.6882 23.0784 18.4824 23.1268 17.2459C23.1753 16.0094 22.9198 14.7799 22.3829 13.6651C21.8459 12.5502 21.0438 11.584 20.0467 10.8511H20.0984Z"/>
</mask>
<path d="M15.5001 8.07397C15.8427 8.07397 16.1712 7.93789 16.4134 7.69565C16.6557 7.45342 16.7917 7.12488 16.7917 6.78231V5.49064C16.7917 5.14807 16.6557 4.81953 16.4134 4.57729C16.1712 4.33506 15.8427 4.19897 15.5001 4.19897C15.1575 4.19897 14.829 4.33506 14.5867 4.57729C14.3445 4.81953 14.2084 5.14807 14.2084 5.49064V6.78231C14.2084 7.12488 14.3445 7.45342 14.5867 7.69565C14.829 7.93789 15.1575 8.07397 15.5001 8.07397ZM9.55841 10.5281C9.79899 10.2861 9.93402 9.95876 9.93402 9.61752C9.93402 9.27628 9.79899 8.9489 9.55841 8.70689L8.65425 7.78981C8.41366 7.55118 8.08894 7.41665 7.75008 7.41522C7.40751 7.41522 7.07897 7.55131 6.83674 7.79354C6.5945 8.03578 6.45841 8.36432 6.45841 8.70689C6.45912 8.87779 6.49374 9.04684 6.56026 9.20427C6.62677 9.36169 6.72387 9.50435 6.84591 9.62397L7.75008 10.5281C7.99153 10.7648 8.31615 10.8974 8.65425 10.8974C8.99234 10.8974 9.31697 10.7648 9.55841 10.5281ZM5.81258 15.1781H4.52091C4.17834 15.1781 3.8498 15.3142 3.60757 15.5565C3.36533 15.7987 3.22925 16.1272 3.22925 16.4698C3.22925 16.8124 3.36533 17.1409 3.60757 17.3832C3.8498 17.6254 4.17834 17.7615 4.52091 17.7615H5.81258C6.15515 17.7615 6.48369 17.6254 6.72593 17.3832C6.96816 17.1409 7.10425 16.8124 7.10425 16.4698C7.10425 16.1272 6.96816 15.7987 6.72593 15.5565C6.48369 15.3142 6.15515 15.1781 5.81258 15.1781ZM27.3963 15.5527C27.2756 15.433 27.1325 15.3383 26.9751 15.274C26.8178 15.2097 26.6492 15.1772 26.4792 15.1781H25.1876C24.845 15.1781 24.5165 15.3142 24.2742 15.5565C24.032 15.7987 23.8959 16.1272 23.8959 16.4698C23.8959 16.8124 24.032 17.1409 24.2742 17.3832C24.5165 17.6254 24.845 17.7615 25.1876 17.7615H26.4792C26.7358 17.763 26.987 17.688 27.2008 17.5462C27.4146 17.4044 27.5813 17.2021 27.6797 16.9651C27.7781 16.7282 27.8037 16.4673 27.7532 16.2158C27.7027 15.9642 27.5785 15.7334 27.3963 15.5527ZM24.5417 8.70689C24.5432 8.45033 24.4683 8.19915 24.3265 7.98535C24.1846 7.77155 23.9824 7.60484 23.7454 7.50645C23.5085 7.40807 23.2476 7.38248 22.996 7.43295C22.7445 7.48341 22.5137 7.60765 22.333 7.78981L21.4288 8.70689C21.1883 8.9489 21.0532 9.27628 21.0532 9.61752C21.0532 9.95876 21.1883 10.2861 21.4288 10.5281C21.6703 10.7648 21.9949 10.8974 22.333 10.8974C22.6711 10.8974 22.9957 10.7648 23.2372 10.5281L24.1672 9.62397C24.2869 9.50328 24.3816 9.36014 24.4459 9.20277C24.5101 9.0454 24.5427 8.87688 24.5417 8.70689ZM18.0834 24.8656H12.9167C12.5742 24.8656 12.2456 25.0017 12.0034 25.244C11.7612 25.4862 11.6251 25.8147 11.6251 26.1573C11.6251 26.4999 11.7612 26.8284 12.0034 27.0707C12.2456 27.3129 12.5742 27.449 12.9167 27.449H18.0834C18.426 27.449 18.7545 27.3129 18.9968 27.0707C19.239 26.8284 19.3751 26.4999 19.3751 26.1573C19.3751 25.8147 19.239 25.4862 18.9968 25.244C18.7545 25.0017 18.426 24.8656 18.0834 24.8656ZM20.0984 10.8511C18.7699 9.87817 17.1661 9.35371 15.5195 9.35371C13.8728 9.35371 12.269 9.87817 10.9405 10.8511C9.96024 11.5924 9.17487 12.5608 8.65204 13.6731C8.12921 14.7853 7.88458 16.008 7.93924 17.2358C7.99389 18.4635 8.34618 19.6596 8.96577 20.721C9.58536 21.7824 10.4537 22.6773 11.4959 23.3286C11.7015 23.456 11.9387 23.5231 12.1805 23.5223H14.2084V19.3761L12.9167 18.0844C12.7945 17.9627 12.6979 17.8178 12.6326 17.6581C12.5642 17.5035 12.5289 17.3363 12.5289 17.1673C12.5289 16.9983 12.5642 16.8311 12.6326 16.6765C12.6979 16.5168 12.7945 16.3719 12.9167 16.2502C13.1588 16.0097 13.4861 15.8746 13.8274 15.8746C14.1686 15.8746 14.496 16.0097 14.738 16.2502L15.5001 17.1156L16.3138 16.3019C16.5558 16.0613 16.8832 15.9263 17.2245 15.9263C17.5657 15.9263 17.8931 16.0613 18.1351 16.3019C18.2573 16.4236 18.3539 16.5685 18.4192 16.7281C18.4876 16.8828 18.5229 17.0499 18.5229 17.219C18.5229 17.388 18.4876 17.5552 18.4192 17.7098C18.3539 17.8694 18.2573 18.0144 18.1351 18.1361L16.8434 19.4277V23.574H18.8713C19.1132 23.5748 19.3504 23.5076 19.5559 23.3802C20.6072 22.7275 21.4825 21.827 22.105 20.7576C22.7275 19.6882 23.0784 18.4824 23.1268 17.2459C23.1753 16.0094 22.9198 14.7799 22.3829 13.6651C21.8459 12.5502 21.0438 11.584 20.0467 10.8511H20.0984Z" stroke="white" stroke-width="2" mask="url(#path-1-inside-1_1043_8691)"/>
</svg>
