<svg width="38" height="38" viewBox="0 0 38 38" fill="none" xmlns="http://www.w3.org/2000/svg">
<rect x="-0.0078125" y="0.529297" width="37.024" height="37.024" rx="10.68" fill="white"/>
<path d="M18.4659 15.0045C16.2549 15.0045 14.4714 16.788 14.4714 18.9991C14.4714 21.2102 16.2549 22.9937 18.4659 22.9937C20.677 22.9937 22.4605 21.2102 22.4605 18.9991C22.4605 16.788 20.677 15.0045 18.4659 15.0045ZM18.4659 21.5961C17.0371 21.5961 15.869 20.4314 15.869 18.9991C15.869 17.5667 17.0336 16.4021 18.4659 16.4021C19.8983 16.4021 21.0629 17.5667 21.0629 18.9991C21.0629 20.4314 19.8948 21.5961 18.4659 21.5961ZM23.5556 14.8411C23.5556 15.3591 23.1384 15.7728 22.6239 15.7728C22.1059 15.7728 21.6922 15.3557 21.6922 14.8411C21.6922 14.3266 22.1094 13.9094 22.6239 13.9094C23.1384 13.9094 23.5556 14.3266 23.5556 14.8411ZM26.2013 15.7867C26.1422 14.5387 25.8571 13.4331 24.9428 12.5223C24.0319 11.6114 22.9264 11.3263 21.6783 11.2637C20.392 11.1907 16.5365 11.1907 15.2501 11.2637C14.0055 11.3228 12.9 11.6079 11.9856 12.5188C11.0713 13.4296 10.7897 14.5352 10.7271 15.7833C10.6541 17.0696 10.6541 20.9251 10.7271 22.2114C10.7862 23.4595 11.0713 24.5651 11.9856 25.4759C12.9 26.3868 14.002 26.6719 15.2501 26.7344C16.5365 26.8075 20.392 26.8075 21.6783 26.7344C22.9264 26.6753 24.0319 26.3903 24.9428 25.4759C25.8536 24.5651 26.1387 23.4595 26.2013 22.2114C26.2743 20.9251 26.2743 17.0731 26.2013 15.7867ZM24.5395 23.5916C24.2683 24.273 23.7434 24.798 23.0585 25.0726C22.0329 25.4794 19.5993 25.3855 18.4659 25.3855C17.3326 25.3855 14.8955 25.4759 13.8734 25.0726C13.192 24.8015 12.667 24.2765 12.3924 23.5916C11.9856 22.566 12.0795 20.1325 12.0795 18.9991C12.0795 17.8657 11.9891 15.4287 12.3924 14.4066C12.6636 13.7251 13.1885 13.2002 13.8734 12.9255C14.899 12.5188 17.3326 12.6126 18.4659 12.6126C19.5993 12.6126 22.0364 12.5223 23.0585 12.9255C23.7399 13.1967 24.2649 13.7217 24.5395 14.4066C24.9463 15.4321 24.8524 17.8657 24.8524 18.9991C24.8524 20.1325 24.9463 22.5695 24.5395 23.5916Z" fill="#1F4A40"/>
</svg>
