<svg width="32" height="32" viewBox="0 0 32 32" fill="none" xmlns="http://www.w3.org/2000/svg">
<path d="M16.3332 2.90723C13.7785 2.90723 11.2812 3.66478 9.15706 5.08408C7.03293 6.50338 5.37736 8.52069 4.39973 10.8809C3.4221 13.2411 3.16631 15.8382 3.6647 18.3438C4.16309 20.8494 5.39329 23.1509 7.19971 24.9574C9.00614 26.7638 11.3077 27.994 13.8133 28.4924C16.3188 28.9908 18.916 28.735 21.2762 27.7573C23.6364 26.7797 25.6537 25.1241 27.073 23C28.4923 20.8759 29.2498 18.3786 29.2498 15.8239C29.2498 14.1277 28.9157 12.448 28.2666 10.8809C27.6175 9.31378 26.6661 7.88985 25.4666 6.69043C24.2672 5.49101 22.8433 4.53957 21.2762 3.89045C19.709 3.24133 18.0294 2.90723 16.3332 2.90723V2.90723ZM16.3332 26.1572C13.8608 26.1479 11.4737 25.2524 9.60519 23.6333C7.7367 22.0142 6.51066 19.7788 6.14964 17.3329C5.78861 14.887 6.31653 12.3927 7.63756 10.3028C8.95859 8.21287 10.9852 6.66589 13.3494 5.94264C12.6435 7.74097 12.3501 9.67473 12.4906 11.6015C12.6311 13.5283 13.202 15.399 14.1613 17.0759C15.1206 18.7528 16.4438 20.1932 18.0335 21.2909C19.6232 22.3887 21.4389 23.1159 23.3469 23.4189C21.4366 25.1813 18.9323 26.159 16.3332 26.1572V26.1572Z" stroke="#1F4A40"/>
</svg>
