<svg width="325" height="80" viewBox="0 0 325 80" fill="none" xmlns="http://www.w3.org/2000/svg">
<path fill-rule="evenodd" clip-rule="evenodd" d="M99.3101 15.8179H102.898L106.159 16.3071L108.931 17.1224L111.377 18.427L112.682 19.4054L114.313 20.8731L115.78 22.8299L117.085 25.439L117.574 27.2328L121.651 27.3959V17.6116H131.109L131.272 20.0577V77.4586H121.814L121.651 77.2955V67.6744H117.411L117.085 69.3051L116.106 71.5881L114.639 73.5449L113.334 75.0125L111.051 76.8063L108.605 77.9478L106.485 78.6001L104.691 78.9262L102.898 79.0893H98.9839L95.7225 78.7632L92.4611 77.9478L89.3628 76.8063L86.5906 75.1756L83.9814 73.2188L81.2092 70.4466L79.5785 68.3266L78.274 66.2067L76.6432 63.1084L75.5018 60.01L74.6864 57.0748L74.0341 53.1611L73.871 51.6934V43.5399L74.5233 38.6478L75.5018 34.7341L76.9694 31.1465L78.7632 27.8851L80.3939 25.6021L82.5138 23.156L84.3076 21.5253L86.7536 19.7316L89.3628 18.2639L92.6242 16.9594L96.2117 16.144L99.3101 15.8179ZM101.43 24.2975H104.365L107.627 24.7867L110.399 25.6021L112.845 26.9067L114.639 28.2112L116.922 30.4942L118.389 32.6141L119.694 35.2233L120.672 38.1585L121.325 41.583L121.651 45.1706V49.5735L121.325 53.3241L120.672 56.5855L119.857 59.1947L119.042 60.9884L117.574 63.5976L115.78 65.7175L113.823 67.5113L111.703 68.8158L109.42 69.7943L107.137 70.4466L105.018 70.7727H100.452L97.1902 70.1204L94.581 69.142L93.2765 68.4897L90.9935 66.859L88.5474 64.4129L86.9167 61.9669L85.286 58.5424L84.3076 55.1179L83.8184 51.6934V43.2137L84.1445 40.4415L84.9599 37.3432L85.9383 34.7341L87.569 31.7988L89.0366 30.005H89.3628L89.6889 29.3527L91.4827 27.722L93.6026 26.4175L95.3964 25.6021L98.0055 24.7867L101.43 24.2975ZM251.292 15.8179H254.88L258.304 16.3071L260.913 17.1224L263.522 18.427L265.316 19.7316L266.621 21.0361L267.599 22.3407L268.741 24.2975L269.719 27.2328H273.633L273.796 17.6116H283.417V77.4586H273.796V67.6744H269.882L269.23 69.3051L268.414 71.2619L267.11 73.2188L265.153 75.3387L263.522 76.6433L260.913 77.9478L257.978 78.7632L254.88 79.0893H251.129L247.215 78.6001L244.117 77.7847L241.508 76.8063L239.062 75.3387L236.779 73.708L234.659 71.7511L232.702 69.6312L231.234 67.5113L229.277 64.0868L227.647 60.01L226.668 56.0963L226.179 52.6719L226.016 50.3889V44.3552L226.342 40.9308L226.994 37.3432L227.81 34.4079L229.277 30.9834L230.908 27.8851L232.213 26.0913L234.007 23.9714L234.659 23.156L235.963 22.0146L237.757 20.5469L240.529 18.7531L243.465 17.4486L246.074 16.6332L248.357 16.144L251.292 15.8179ZM253.738 24.2975H256.184L258.956 24.6237L261.565 25.276L263.522 26.0913L265.316 27.0697L266.947 28.3743L268.578 29.8419L270.045 31.7988L271.513 34.4079L272.654 37.5063L273.47 40.9307L273.796 45.1706V50.0627L273.47 53.8133L272.817 56.7486L271.839 59.6839L270.534 62.293L269.393 64.0868L267.436 66.2067L265.968 67.5113L263.685 68.9789L260.587 70.1204L257.326 70.7727H252.76L249.335 70.1204L246.4 68.9789L244.443 67.8374L243.465 67.1851V66.859L242.812 66.5329L241.834 65.7175L240.04 63.4345L238.736 61.3146L237.594 58.8685L236.453 55.281L235.963 52.0196L235.8 49.5735V45.3337L236.126 41.583L236.779 38.6478L237.594 36.0386L238.409 34.0818L240.04 31.4726L241.508 29.6789L243.302 28.0482L244.932 26.9067L247.541 25.6021L250.151 24.7867L253.738 24.2975ZM29.5158 15.8179H33.1034L37.1801 16.3071L41.0938 17.4486L43.866 18.7531L45.6598 19.8946L47.7797 21.6884L49.4104 23.3191L51.0411 25.7652L52.6719 28.8635L53.9764 32.7772L54.7918 36.854L55.1179 39.9523V77.4586H45.4967L45.3337 41.2569L44.8445 37.6694L44.0291 34.571L43.2137 32.6142L41.7461 30.3312L40.2785 28.7005L38.3216 27.2328L36.0386 25.9283L33.1034 24.9498L30.3312 24.4606L26.7436 24.2976L23.6453 24.6237L20.8731 25.276L18.2639 26.4175L16.6332 27.3959L15.0025 28.8635L13.6979 30.3312L12.3934 32.4511L11.2519 35.2233L10.4365 38.6478L10.1104 40.6046L9.78425 45.6598V77.4586H0V18.2639L0.163071 17.6117L2.28299 17.4486H5.54441L9.78425 17.6117V26.4175L13.861 26.2544L15.1656 23.6453L16.4701 21.6884L17.6116 20.3839L19.2423 19.0793L21.5253 17.7747L24.1345 16.7963L26.9067 16.144L29.5158 15.8179ZM205.306 16.144H202.371L199.436 16.4701L196.989 17.1224L194.543 18.2639L192.26 19.5685L189.488 21.6884L187.694 23.6453L186.227 25.6021L185.248 27.2328L184.27 29.6789L180.03 29.8419V17.4486H158.831L156.548 17.6116V26.0913H170.409L170.246 68.9789L152.308 69.142V77.4586H207.426V69.142L206.448 68.9789H180.193V46.4752L180.519 43.703L181.335 40.6046L182.476 37.5063L184.107 34.7341L185.901 32.4511L187.531 30.9834L189.814 29.3527L192.587 27.8851L195.522 26.9067L198.457 26.4175H202.208L203.675 26.5805L207.263 27.3959L207.589 27.2328V17.4486L207.426 16.3071L205.306 16.144Z" fill="#D8E3B1"/>
<path d="M307.062 0H312.77L312.933 0.326142L312.28 9.4581L311.628 11.9042L314.237 10.2735L316.031 8.96889L318.966 6.84897L321.249 5.21826H321.739L324.022 9.13196L325 10.7627L324.837 11.0888L315.705 15.3287L314.563 15.8179V16.144L318.966 18.1009L322.88 19.8946L324.837 20.8731L324.674 21.6884L322.554 25.276L321.739 26.7436L320.597 26.0913L317.988 24.2975L315.216 22.3407L312.28 20.3838L311.954 20.2208L312.28 22.6668L312.933 30.3312V31.7988H306.247L306.41 29.5158L307.388 20.2208L306.247 20.8731L303.801 22.6668L300.539 24.9498L297.93 26.7436L297.278 26.4175L295.647 23.4822L294.669 21.8515L294.18 21.1992V20.8731L298.256 19.0793L303.475 16.6332L304.29 16.3071L304.779 15.8179L300.213 13.861L294.669 11.2519L294.18 11.0888L294.506 10.2735L296.789 6.35976L297.278 5.38133L298.093 5.54441L301.192 7.50125L303.964 9.62117L306.736 11.578L307.388 11.9042L307.225 11.578L306.247 1.95685L306.084 0.163071L307.062 0Z" fill="#B6B1D2"/>
</svg>
