<svg width="31" height="33" viewBox="0 0 31 33" fill="none" xmlns="http://www.w3.org/2000/svg">
<path d="M3.875 5.83301H4.65816C5.97647 5.83301 7.08329 6.85768 7.22626 8.21048L8.27374 18.1222C8.41671 19.475 9.52354 20.4997 10.8418 20.4997H22.0178C23.1987 20.4997 24.2292 19.6731 24.521 18.492L26.3034 11.2772C26.72 9.59106 25.4859 7.95153 23.8002 7.95153H8.525M8.55698 25.3329H9.52573M8.55698 26.3329H9.52573M22.7653 25.3329H23.7341M22.7653 26.3329H23.7341M10.3333 25.833C10.3333 26.5694 9.75504 27.1663 9.04167 27.1663C8.3283 27.1663 7.75 26.5694 7.75 25.833C7.75 25.0966 8.3283 24.4997 9.04167 24.4997C9.75504 24.4997 10.3333 25.0966 10.3333 25.833ZM24.5417 25.833C24.5417 26.5694 23.9634 27.1663 23.25 27.1663C22.5366 27.1663 21.9583 26.5694 21.9583 25.833C21.9583 25.0966 22.5366 24.4997 23.25 24.4997C23.9634 24.4997 24.5417 25.0966 24.5417 25.833Z" stroke="#1F4A40" stroke-linecap="round"/>
</svg>
