<svg width="182" height="45" viewBox="0 0 182 45" fill="none" xmlns="http://www.w3.org/2000/svg">
<path fill-rule="evenodd" clip-rule="evenodd" d="M55.6133 9.21289H57.6223L59.4487 9.48685L61.0011 9.94345L62.3709 10.674L63.1015 11.2219L64.0147 12.0438L64.8365 13.1396L65.5671 14.6007L65.8411 15.6053L68.124 15.6966V10.2174H73.4206L73.5119 11.5872V43.7317H68.2154L68.124 43.6404V38.2525H65.7497L65.5671 39.1657L65.0192 40.4442L64.1973 41.54L63.4667 42.3619L62.1883 43.3664L60.8185 44.0057L59.6313 44.3709L58.6268 44.5536L57.6223 44.6449H55.4306L53.6042 44.4623L51.7778 44.0057L50.0428 43.3664L48.4903 42.4532L47.0292 41.3574L45.4768 39.805L44.5636 38.6178L43.833 37.4307L42.9198 35.6956L42.2806 33.9605L41.824 32.3168L41.4587 30.1251L41.3674 29.3032V24.7372L41.7327 21.9976L42.2806 19.806L43.1025 17.7969L44.107 15.9705L45.0202 14.6921L46.2073 13.3223L47.2119 12.4091L48.5816 11.4046L50.0428 10.5827L51.8692 9.85213L53.8782 9.39553L55.6133 9.21289ZM56.8004 13.9616H58.4442L60.2705 14.2355L61.823 14.6921L63.1928 15.4227L64.1973 16.1532L65.4758 17.4317L66.2976 18.6189L67.0282 20.08L67.5761 21.7237L67.9414 23.6414L68.124 25.6505V28.1161L67.9414 30.2164L67.5761 32.0428L67.1195 33.504L66.6629 34.5085L65.841 35.9696L64.8365 37.1567L63.7407 38.1613L62.5535 38.8918L61.2751 39.4397L59.9966 39.805L58.8094 39.9876H56.2525L54.4261 39.6224L52.965 39.0744L52.2344 38.7092L50.9559 37.796L49.5862 36.4262L48.673 35.0564L47.7598 33.1387L47.2118 31.221L46.9379 29.3033V24.5546L47.1205 23.0022L47.5771 21.2671L48.125 19.806L49.0382 18.1623L49.8601 17.1577H50.0428L50.2254 16.7925L51.2299 15.8793L52.4171 15.1487L53.4216 14.6921L54.8827 14.2355L56.8004 13.9616ZM140.723 9.21289H142.732L144.65 9.48685L146.111 9.94345L147.572 10.674L148.577 11.4046L149.307 12.1351L149.855 12.8657L150.495 13.9615L151.042 15.6053H153.234L153.325 10.2174H158.713V43.7317H153.325V38.2525H151.134L150.768 39.1657L150.312 40.2616L149.581 41.3574L148.485 42.5445L147.572 43.2751L146.111 44.0057L144.467 44.4623L142.732 44.6449H140.632L138.44 44.3709L136.705 43.9143L135.244 43.3664L133.874 42.5445L132.596 41.6314L131.409 40.5355L130.313 39.3484L129.491 38.1612L128.395 36.2435L127.482 33.9605L126.934 31.7688L126.66 29.8511L126.569 28.5726V25.1938L126.751 23.2761L127.117 21.2671L127.573 19.6233L128.395 17.7056L129.308 15.9705L130.039 14.966L131.043 13.7789L131.409 13.3223L132.139 12.683L133.144 11.8612L134.696 10.8566L136.34 10.1261L137.801 9.66949L139.08 9.39553L140.723 9.21289ZM142.093 13.9616H143.463L145.015 14.1442L146.476 14.5095L147.572 14.9661L148.577 15.514L149.49 16.2445L150.403 17.0664L151.225 18.1623L152.047 19.6234L152.686 21.3584L153.143 23.2762L153.325 25.6505V28.3901L153.143 30.4904L152.777 32.1342L152.23 33.7779L151.499 35.239L150.86 36.2435L149.764 37.4307L148.942 38.1613L147.664 38.9831L145.928 39.6224L144.102 39.9876H141.545L139.627 39.6224L137.984 38.9831L136.888 38.3439L136.34 37.9786V37.796L135.975 37.6133L135.427 37.1567L134.422 35.8783L133.692 34.6911L133.052 33.3213L132.413 31.3123L132.139 29.4859L132.048 28.1161V25.7418L132.231 23.6414L132.596 21.9977L133.052 20.5366L133.509 19.4407L134.422 17.9796L135.244 16.9751L136.249 16.0619L137.162 15.4227L138.623 14.6921L140.084 14.2355L142.093 13.9616ZM16.5289 9.2129H18.5379L20.8209 9.48686L23.0125 10.1261L24.565 10.8567L25.5695 11.4959L26.7566 12.5004L27.6698 13.4136L28.583 14.7834L29.4962 16.5185L30.2268 18.7101L30.6834 20.9931L30.866 22.7282V43.7317H25.4782L25.3869 23.4588L25.1129 21.4497L24.6563 19.7147L24.1997 18.6188L23.3778 17.3403L22.5559 16.4272L21.4601 15.6053L20.1816 14.8747L18.5379 14.3268L16.9854 14.0528L14.9764 13.9615L13.2413 14.1442L11.6889 14.5094L10.2278 15.1487L9.3146 15.6966L8.4014 16.5185L7.67085 17.3403L6.94029 18.5275L6.30105 20.0799L5.84446 21.9977L5.66182 23.0935L5.47918 25.9244V43.7317H0V10.5827L0.0913196 10.2174L1.27847 10.1261H3.10487L5.47918 10.2174V15.1487L7.76217 15.0574L8.49272 13.5962L9.22328 12.5004L9.86252 11.7699L10.7757 11.0393L12.0542 10.3087L13.5153 9.76082L15.0677 9.39554L16.5289 9.2129ZM114.971 9.3956H113.327L111.684 9.57824L110.314 9.94352L108.944 10.5828L107.666 11.3133L106.113 12.5005L105.109 13.5963L104.287 14.6921L103.739 15.6053L103.191 16.9751L100.817 17.0665V10.1262H88.9451L87.6667 10.2175V14.9661H95.4288L95.3375 38.9832L85.2924 39.0745V43.7318H116.158V39.0745L115.61 38.9832H100.908V26.3811L101.091 24.8286L101.547 23.0935L102.186 21.3585L103.1 19.806L104.104 18.5276L105.017 17.7057L106.296 16.7925L107.848 15.9706L109.492 15.4227L111.136 15.1487H113.236L114.058 15.2401L116.067 15.6967L116.25 15.6053V10.1262L116.158 9.48692L114.971 9.3956Z" fill="#1F4A40"/>
<path d="M171.955 0.354492H175.151L175.242 0.537131L174.877 5.65103L174.512 7.02082L175.973 6.10763L176.978 5.37707L178.621 4.18992L179.9 3.27672H180.174L181.452 5.46839L182 6.38159L181.909 6.56423L176.795 8.93854L176.156 9.2125V9.39513L178.621 10.491L180.813 11.4955L181.909 12.0434L181.817 12.5L180.63 14.509L180.174 15.3309L179.535 14.9656L178.073 13.9611L176.521 12.8653L174.877 11.7694L174.695 11.6781L174.877 13.0479L175.242 17.3399V18.1618H171.498L171.59 16.8833L172.138 11.6781L171.498 12.0434L170.129 13.0479L168.302 14.3264L166.841 15.3309L166.476 15.1483L165.563 13.5045L165.015 12.5913L164.741 12.226V12.0434L167.024 11.0389L169.946 9.66909L170.403 9.48645L170.676 9.2125L168.12 8.11666L165.015 6.65555L164.741 6.56423L164.923 6.10763L166.202 3.91596L166.476 3.36804L166.932 3.45936L168.667 4.55519L170.22 5.74235L171.772 6.83819L172.138 7.02082L172.046 6.83819L171.498 1.45033L171.407 0.445812L171.955 0.354492Z" fill="#B6B1D2"/>
</svg>
