<svg width="728" height="160" viewBox="0 0 728 160" fill="none" xmlns="http://www.w3.org/2000/svg">
<path fill-rule="evenodd" clip-rule="evenodd" d="M74.6391 0H83.7113L94.0206 1.23711L103.917 4.12371L110.928 7.42268L115.464 10.3093L120.825 14.8454L124.948 18.9691L129.072 25.1546L133.196 32.9897L136.495 42.8866L138.557 53.1959L139.381 61.0309V155.876H115.051L114.639 64.3299L113.402 55.2577L111.34 47.4227L109.278 42.4742L105.567 36.701L101.856 32.5773L96.9072 28.866L91.134 25.567L83.7113 23.0928L76.701 21.8557L67.6288 21.4433L59.7938 22.268L52.7835 23.9175L46.1855 26.8041L42.0618 29.2783L37.9381 32.9897L34.6392 36.701L31.3402 42.0618L28.4536 49.0721L26.3917 57.7319L25.567 62.6804L24.7423 75.4639V155.876H0V6.18556L0.412371 4.53608L5.77319 4.12371H14.0206L24.7423 4.53608V26.8041L35.0515 26.3917L38.3505 19.7938L41.6495 14.8454L44.5361 11.5464L48.6598 8.24742L54.433 4.94845L61.0309 2.47423L68.0412 0.824742L74.6391 0ZM251.132 0H260.204L268.452 1.23711L275.462 3.29897L281.648 6.59793L284.947 9.07216L289.07 12.7835L292.782 17.7319L296.081 24.3299L297.318 28.866L307.627 29.2783V4.53608H331.544L331.957 10.7216V155.876H308.039L307.627 155.464V131.134H296.905L296.081 135.258L293.606 141.031L289.895 145.979L286.596 149.691L280.823 154.227L274.637 157.113L269.276 158.763L264.74 159.588L260.204 160H250.307L242.06 159.175L233.813 157.113L225.977 154.227L218.967 150.103L212.369 145.155L205.359 138.144L201.235 132.783L197.936 127.423L193.813 119.588L190.926 111.753L188.864 104.33L187.215 94.4329L186.802 90.7216V70.103L188.452 57.7319L190.926 47.835L194.637 38.7629L199.173 30.5154L203.297 24.7423L208.658 18.5567L213.194 14.433L219.38 9.8969L225.977 6.18556L234.225 2.8866L243.297 0.824742L251.132 0ZM256.493 21.4437H263.916L272.163 22.6808L279.173 24.7426L285.359 28.0416L289.895 31.3406L295.668 37.1138L299.38 42.4746L302.679 49.0725L305.153 56.4952L306.802 65.155L307.627 74.2271V85.3612L306.802 94.8457L305.153 103.093L303.091 109.691L301.029 114.227L297.318 120.825L292.782 126.186L287.833 130.722L282.472 134.021L276.699 136.495L270.926 138.145L265.565 138.969H254.019L245.771 137.32L239.173 134.846L235.874 133.196L230.101 129.072L223.916 122.887L219.792 116.701L215.668 108.042L213.194 99.3818L211.957 90.722V69.2787L212.782 62.2684L214.844 54.4333L217.318 47.8354L221.442 40.4127L225.153 35.8766H225.978L226.802 34.2272L231.338 30.1035L236.699 26.8045L241.235 24.7426L247.833 22.6808L256.493 21.4437ZM635.462 0H644.535L653.194 1.23711L659.792 3.29897L666.39 6.59793L670.926 9.8969L674.225 13.1959L676.7 16.4948L679.586 21.4433L682.06 28.866H691.957L692.37 4.53608H716.7V155.876H692.37V131.134H682.473L680.823 135.258L678.761 140.206L675.462 145.155L670.514 150.515L666.39 153.814L659.792 157.113L652.37 159.175L644.535 160H635.05L625.153 158.763L617.318 156.701L610.72 154.227L604.535 150.515L598.761 146.392L593.401 141.443L588.452 136.082L584.741 130.722L579.792 122.062L575.669 111.753L573.194 101.856L571.957 93.1958L571.545 87.4226V72.1649L572.37 63.5051L574.019 54.433L576.081 47.0103L579.792 38.3505L583.916 30.5154L587.215 25.9794L591.751 20.6185L593.401 18.5567L596.7 15.6701L601.236 11.9588L608.246 7.42268L615.669 4.12371L622.267 2.06185L628.04 0.824742L635.462 0ZM641.648 21.4437H647.834L654.844 22.2684L661.442 23.9179L666.39 25.9797L670.926 28.454L675.05 31.7529L679.174 35.4643L682.885 40.4127L686.596 47.0107L689.483 54.8457L691.545 63.5055L692.37 74.2271V86.5983L691.545 96.0828L689.895 103.505L687.421 110.928L684.122 117.526L681.236 122.062L676.287 127.423L672.576 130.722L666.803 134.433L658.968 137.32L650.72 138.969H639.174L630.514 137.32L623.091 134.433L618.143 131.547L615.669 129.897V129.072L614.019 128.248L611.545 126.186L607.009 120.413L603.71 115.052L600.823 108.866L597.937 99.7941L596.7 91.5467L596.287 85.3612V74.6395L597.112 65.155L598.761 57.7323L600.823 51.1344L602.885 46.1859L607.009 39.588L610.72 35.0519L615.256 30.9282L619.38 28.0416L625.978 24.7426L632.576 22.6808L641.648 21.4437ZM519.174 0.825057H511.751L504.329 1.6498L498.143 3.29928L491.958 6.18588L486.185 9.48485L479.174 14.8457L474.638 19.7941L470.927 24.7426L468.453 28.8663L465.978 35.0518L455.257 35.4642V4.12402H401.648L395.875 4.53639V25.9797H430.927L430.514 134.433L385.154 134.846V155.877H524.535V134.846L522.061 134.433H455.669V77.526L456.494 70.5157L458.556 62.6807L461.442 54.8456L465.566 47.8353L470.102 42.0621L474.226 38.3508L479.999 34.2271L487.009 30.5158L494.432 28.0415L501.855 26.8044H511.339L515.05 27.2168L524.123 29.2786L524.947 28.8663V4.12402L524.535 1.23743L519.174 0.825057Z" fill="#1F4A40"/>
</svg>
