<svg width="31" height="32" viewBox="0 0 31 32" fill="none" xmlns="http://www.w3.org/2000/svg">
<path d="M12.8826 0H18.5901L18.7531 0.326142L18.1009 9.4581L17.4486 11.9042L20.0577 10.2735L21.8515 8.96889L24.7868 6.84897L27.0697 5.21826H27.559L29.8419 9.13196L30.8204 10.7627L30.6573 11.0888L21.5253 15.3287L20.3838 15.8179V16.144L24.7868 18.1009L28.7005 19.8946L30.6573 20.8731L30.4942 21.6884L28.3743 25.276L27.559 26.7436L26.4175 26.0913L23.8083 24.2975L21.0361 22.3407L18.1009 20.3838L17.7747 20.2208L18.1009 22.6668L18.7531 30.3312V31.7988H12.0672L12.2303 29.5158L13.2087 20.2208L12.0672 20.8731L9.62117 22.6668L6.35976 24.9498L3.75063 26.7436L3.09834 26.4175L1.46764 23.4822L0.489212 21.8515L0 21.1992V20.8731L4.07677 19.0793L9.29503 16.6332L10.1104 16.3071L10.5996 15.8179L6.03362 13.861L0.489212 11.2519L0 11.0888L0.326142 10.2735L2.60913 6.35976L3.09834 5.38133L3.9137 5.54441L7.01204 7.50125L9.78425 9.62117L12.5564 11.578L13.2087 11.9042L13.0457 11.578L12.0672 1.95685L11.9042 0.163071L12.8826 0Z" fill="#B6B1D2"/>
</svg>
