<svg width="456" height="13" viewBox="0 0 456 13" fill="none" xmlns="http://www.w3.org/2000/svg">
<g opacity="0.5">
<path d="M6.17166 0H8.57906L8.64785 0.133333L8.37271 3.86667L8.09758 4.86667L9.19811 4.2L9.95472 3.66667L11.1928 2.8L12.1558 2.13333H12.3621L13.3251 3.73333L13.7378 4.4L13.669 4.53333L9.81716 6.26667L9.33568 6.46667V6.6L11.1928 7.4L12.8436 8.13333L13.669 8.53333L13.6002 8.86667L12.706 10.3333L12.3621 10.9333L11.8807 10.6667L10.7801 9.93333L9.61081 9.13333L8.37271 8.33333L8.23515 8.26667L8.37271 9.26667L8.64785 12.4V13H5.82774L5.89652 12.0667L6.30922 8.26667L5.82774 8.53333L4.79599 9.26667L3.42033 10.2L2.3198 10.9333L2.04467 10.8L1.35684 9.6L0.944142 8.93333L0.737793 8.66667V8.53333L2.45737 7.8L4.65843 6.8L5.00234 6.66667L5.20869 6.46667L3.28277 5.66667L0.944142 4.6L0.737793 4.53333L0.875359 4.2L1.83832 2.6L2.04467 2.2L2.38859 2.26667L3.69546 3.06667L4.86478 3.93333L6.03409 4.73333L6.30922 4.86667L6.24044 4.73333L5.82774 0.8L5.75896 0.0666667L6.17166 0Z" fill="#1F4A40"/>
<path d="M51.1717 0H53.5791L53.6478 0.133333L53.3727 3.86667L53.0976 4.86667L54.1981 4.2L54.9547 3.66667L56.1928 2.8L57.1558 2.13333H57.3621L58.3251 3.73333L58.7378 4.4L58.669 4.53333L54.8172 6.26667L54.3357 6.46667V6.6L56.1928 7.4L57.8436 8.13333L58.669 8.53333L58.6002 8.86667L57.706 10.3333L57.3621 10.9333L56.8807 10.6667L55.7801 9.93333L54.6108 9.13333L53.3727 8.33333L53.2351 8.26667L53.3727 9.26667L53.6478 12.4V13H50.8277L50.8965 12.0667L51.3092 8.26667L50.8277 8.53333L49.796 9.26667L48.4203 10.2L47.3198 10.9333L47.0447 10.8L46.3568 9.6L45.9441 8.93333L45.7378 8.66667V8.53333L47.4574 7.8L49.6584 6.8L50.0023 6.66667L50.2087 6.46667L48.2828 5.66667L45.9441 4.6L45.7378 4.53333L45.8754 4.2L46.8383 2.6L47.0447 2.2L47.3886 2.26667L48.6955 3.06667L49.8648 3.93333L51.0341 4.73333L51.3092 4.86667L51.2404 4.73333L50.8277 0.8L50.759 0.0666667L51.1717 0Z" fill="#1F4A40"/>
<path d="M96.1717 0H98.5791L98.6478 0.133333L98.3727 3.86667L98.0976 4.86667L99.1981 4.2L99.9547 3.66667L101.193 2.8L102.156 2.13333H102.362L103.325 3.73333L103.738 4.4L103.669 4.53333L99.8172 6.26667L99.3357 6.46667V6.6L101.193 7.4L102.844 8.13333L103.669 8.53333L103.6 8.86667L102.706 10.3333L102.362 10.9333L101.881 10.6667L100.78 9.93333L99.6108 9.13333L98.3727 8.33333L98.2351 8.26667L98.3727 9.26667L98.6478 12.4V13H95.8277L95.8965 12.0667L96.3092 8.26667L95.8277 8.53333L94.796 9.26667L93.4203 10.2L92.3198 10.9333L92.0447 10.8L91.3568 9.6L90.9441 8.93333L90.7378 8.66667V8.53333L92.4574 7.8L94.6584 6.8L95.0023 6.66667L95.2087 6.46667L93.2828 5.66667L90.9441 4.6L90.7378 4.53333L90.8754 4.2L91.8383 2.6L92.0447 2.2L92.3886 2.26667L93.6955 3.06667L94.8648 3.93333L96.0341 4.73333L96.3092 4.86667L96.2404 4.73333L95.8277 0.8L95.759 0.0666667L96.1717 0Z" fill="#1F4A40"/>
<path d="M141.172 0H143.579L143.648 0.133333L143.373 3.86667L143.098 4.86667L144.198 4.2L144.955 3.66667L146.193 2.8L147.156 2.13333H147.362L148.325 3.73333L148.738 4.4L148.669 4.53333L144.817 6.26667L144.336 6.46667V6.6L146.193 7.4L147.844 8.13333L148.669 8.53333L148.6 8.86667L147.706 10.3333L147.362 10.9333L146.881 10.6667L145.78 9.93333L144.611 9.13333L143.373 8.33333L143.235 8.26667L143.373 9.26667L143.648 12.4V13H140.828L140.897 12.0667L141.309 8.26667L140.828 8.53333L139.796 9.26667L138.42 10.2L137.32 10.9333L137.045 10.8L136.357 9.6L135.944 8.93333L135.738 8.66667V8.53333L137.457 7.8L139.658 6.8L140.002 6.66667L140.209 6.46667L138.283 5.66667L135.944 4.6L135.738 4.53333L135.875 4.2L136.838 2.6L137.045 2.2L137.389 2.26667L138.695 3.06667L139.865 3.93333L141.034 4.73333L141.309 4.86667L141.24 4.73333L140.828 0.8L140.759 0.0666667L141.172 0Z" fill="#1F4A40"/>
<path d="M186.172 0H188.579L188.648 0.133333L188.373 3.86667L188.098 4.86667L189.198 4.2L189.955 3.66667L191.193 2.8L192.156 2.13333H192.362L193.325 3.73333L193.738 4.4L193.669 4.53333L189.817 6.26667L189.336 6.46667V6.6L191.193 7.4L192.844 8.13333L193.669 8.53333L193.6 8.86667L192.706 10.3333L192.362 10.9333L191.881 10.6667L190.78 9.93333L189.611 9.13333L188.373 8.33333L188.235 8.26667L188.373 9.26667L188.648 12.4V13H185.828L185.897 12.0667L186.309 8.26667L185.828 8.53333L184.796 9.26667L183.42 10.2L182.32 10.9333L182.045 10.8L181.357 9.6L180.944 8.93333L180.738 8.66667V8.53333L182.457 7.8L184.658 6.8L185.002 6.66667L185.209 6.46667L183.283 5.66667L180.944 4.6L180.738 4.53333L180.875 4.2L181.838 2.6L182.045 2.2L182.389 2.26667L183.695 3.06667L184.865 3.93333L186.034 4.73333L186.309 4.86667L186.24 4.73333L185.828 0.8L185.759 0.0666667L186.172 0Z" fill="#1F4A40"/>
<path d="M231.172 0H233.579L233.648 0.133333L233.373 3.86667L233.098 4.86667L234.198 4.2L234.955 3.66667L236.193 2.8L237.156 2.13333H237.362L238.325 3.73333L238.738 4.4L238.669 4.53333L234.817 6.26667L234.336 6.46667V6.6L236.193 7.4L237.844 8.13333L238.669 8.53333L238.6 8.86667L237.706 10.3333L237.362 10.9333L236.881 10.6667L235.78 9.93333L234.611 9.13333L233.373 8.33333L233.235 8.26667L233.373 9.26667L233.648 12.4V13H230.828L230.897 12.0667L231.309 8.26667L230.828 8.53333L229.796 9.26667L228.42 10.2L227.32 10.9333L227.045 10.8L226.357 9.6L225.944 8.93333L225.738 8.66667V8.53333L227.457 7.8L229.658 6.8L230.002 6.66667L230.209 6.46667L228.283 5.66667L225.944 4.6L225.738 4.53333L225.875 4.2L226.838 2.6L227.045 2.2L227.389 2.26667L228.695 3.06667L229.865 3.93333L231.034 4.73333L231.309 4.86667L231.24 4.73333L230.828 0.8L230.759 0.0666667L231.172 0Z" fill="#1F4A40"/>
<path d="M276.172 0H278.579L278.648 0.133333L278.373 3.86667L278.098 4.86667L279.198 4.2L279.955 3.66667L281.193 2.8L282.156 2.13333H282.362L283.325 3.73333L283.738 4.4L283.669 4.53333L279.817 6.26667L279.336 6.46667V6.6L281.193 7.4L282.844 8.13333L283.669 8.53333L283.6 8.86667L282.706 10.3333L282.362 10.9333L281.881 10.6667L280.78 9.93333L279.611 9.13333L278.373 8.33333L278.235 8.26667L278.373 9.26667L278.648 12.4V13H275.828L275.897 12.0667L276.309 8.26667L275.828 8.53333L274.796 9.26667L273.42 10.2L272.32 10.9333L272.045 10.8L271.357 9.6L270.944 8.93333L270.738 8.66667V8.53333L272.457 7.8L274.658 6.8L275.002 6.66667L275.209 6.46667L273.283 5.66667L270.944 4.6L270.738 4.53333L270.875 4.2L271.838 2.6L272.045 2.2L272.389 2.26667L273.695 3.06667L274.865 3.93333L276.034 4.73333L276.309 4.86667L276.24 4.73333L275.828 0.8L275.759 0.0666667L276.172 0Z" fill="#1F4A40"/>
<path d="M321.172 0H323.579L323.648 0.133333L323.373 3.86667L323.098 4.86667L324.198 4.2L324.955 3.66667L326.193 2.8L327.156 2.13333H327.362L328.325 3.73333L328.738 4.4L328.669 4.53333L324.817 6.26667L324.336 6.46667V6.6L326.193 7.4L327.844 8.13333L328.669 8.53333L328.6 8.86667L327.706 10.3333L327.362 10.9333L326.881 10.6667L325.78 9.93333L324.611 9.13333L323.373 8.33333L323.235 8.26667L323.373 9.26667L323.648 12.4V13H320.828L320.897 12.0667L321.309 8.26667L320.828 8.53333L319.796 9.26667L318.42 10.2L317.32 10.9333L317.045 10.8L316.357 9.6L315.944 8.93333L315.738 8.66667V8.53333L317.457 7.8L319.658 6.8L320.002 6.66667L320.209 6.46667L318.283 5.66667L315.944 4.6L315.738 4.53333L315.875 4.2L316.838 2.6L317.045 2.2L317.389 2.26667L318.695 3.06667L319.865 3.93333L321.034 4.73333L321.309 4.86667L321.24 4.73333L320.828 0.8L320.759 0.0666667L321.172 0Z" fill="#1F4A40"/>
<path d="M366.172 0H368.579L368.648 0.133333L368.373 3.86667L368.098 4.86667L369.198 4.2L369.955 3.66667L371.193 2.8L372.156 2.13333H372.362L373.325 3.73333L373.738 4.4L373.669 4.53333L369.817 6.26667L369.336 6.46667V6.6L371.193 7.4L372.844 8.13333L373.669 8.53333L373.6 8.86667L372.706 10.3333L372.362 10.9333L371.881 10.6667L370.78 9.93333L369.611 9.13333L368.373 8.33333L368.235 8.26667L368.373 9.26667L368.648 12.4V13H365.828L365.897 12.0667L366.309 8.26667L365.828 8.53333L364.796 9.26667L363.42 10.2L362.32 10.9333L362.045 10.8L361.357 9.6L360.944 8.93333L360.738 8.66667V8.53333L362.457 7.8L364.658 6.8L365.002 6.66667L365.209 6.46667L363.283 5.66667L360.944 4.6L360.738 4.53333L360.875 4.2L361.838 2.6L362.045 2.2L362.389 2.26667L363.695 3.06667L364.865 3.93333L366.034 4.73333L366.309 4.86667L366.24 4.73333L365.828 0.8L365.759 0.0666667L366.172 0Z" fill="#1F4A40"/>
<path d="M411.172 0H413.579L413.648 0.133333L413.373 3.86667L413.098 4.86667L414.198 4.2L414.955 3.66667L416.193 2.8L417.156 2.13333H417.362L418.325 3.73333L418.738 4.4L418.669 4.53333L414.817 6.26667L414.336 6.46667V6.6L416.193 7.4L417.844 8.13333L418.669 8.53333L418.6 8.86667L417.706 10.3333L417.362 10.9333L416.881 10.6667L415.78 9.93333L414.611 9.13333L413.373 8.33333L413.235 8.26667L413.373 9.26667L413.648 12.4V13H410.828L410.897 12.0667L411.309 8.26667L410.828 8.53333L409.796 9.26667L408.42 10.2L407.32 10.9333L407.045 10.8L406.357 9.6L405.944 8.93333L405.738 8.66667V8.53333L407.457 7.8L409.658 6.8L410.002 6.66667L410.209 6.46667L408.283 5.66667L405.944 4.6L405.738 4.53333L405.875 4.2L406.838 2.6L407.045 2.2L407.389 2.26667L408.695 3.06667L409.865 3.93333L411.034 4.73333L411.309 4.86667L411.24 4.73333L410.828 0.8L410.759 0.0666667L411.172 0Z" fill="#1F4A40"/>
<path d="M456.172 0H458.579L458.648 0.133333L458.373 3.86667L458.098 4.86667L459.198 4.2L459.955 3.66667L461.193 2.8L462.156 2.13333H462.362L463.325 3.73333L463.738 4.4L463.669 4.53333L459.817 6.26667L459.336 6.46667V6.6L461.193 7.4L462.844 8.13333L463.669 8.53333L463.6 8.86667L462.706 10.3333L462.362 10.9333L461.881 10.6667L460.78 9.93333L459.611 9.13333L458.373 8.33333L458.235 8.26667L458.373 9.26667L458.648 12.4V13H455.828L455.897 12.0667L456.309 8.26667L455.828 8.53333L454.796 9.26667L453.42 10.2L452.32 10.9333L452.045 10.8L451.357 9.6L450.944 8.93333L450.738 8.66667V8.53333L452.457 7.8L454.658 6.8L455.002 6.66667L455.209 6.46667L453.283 5.66667L450.944 4.6L450.738 4.53333L450.875 4.2L451.838 2.6L452.045 2.2L452.389 2.26667L453.695 3.06667L454.865 3.93333L456.034 4.73333L456.309 4.86667L456.24 4.73333L455.828 0.8L455.759 0.0666667L456.172 0Z" fill="#1F4A40"/>
</g>
</svg>
